<svg width="1024" height="1024" viewBox="0 0 1024 1024" fill="none" xmlns="http://www.w3.org/2000/svg">
<g clip-path="url(#clip0_1309_1169)">
<path d="M512 274C525.414 273.907 538.828 273.836 552.242 273.793C558.472 273.772 564.702 273.744 570.932 273.698C576.956 273.655 582.979 273.631 589.003 273.621C591.289 273.613 593.576 273.599 595.863 273.577C608.907 273.458 620.526 273.963 633 278C634.227 278.378 635.453 278.756 636.717 279.146C650.704 283.584 663.186 291.135 674 301C674.777 301.696 675.554 302.392 676.355 303.109C692.905 318.719 704.635 342.128 705.336 364.977C705.366 367.526 705.378 370.076 705.375 372.625C705.375 373.288 705.375 373.951 705.375 374.634C705.348 385.048 704.551 394.19 701 404C700.532 405.379 700.532 405.379 700.054 406.785C693.684 424.104 682.26 438.497 668 450C667.34 450 666.68 450 666 450C666 450.66 666 451.32 666 452C666.711 452.268 667.423 452.536 668.156 452.813C697.254 464.963 718.506 491.91 730.812 520.125C743.001 551.186 741.837 584.427 728.75 614.938C723.322 627.163 716.906 637.934 708 648C707.167 648.977 706.334 649.954 705.476 650.961C682.644 677.286 647.532 693.935 613 697C609.097 697.138 605.198 697.131 601.294 697.12C599.55 697.122 599.55 697.122 597.771 697.123C594.563 697.124 591.354 697.121 588.146 697.116C584.679 697.112 581.212 697.113 577.745 697.114C571.745 697.115 565.744 697.111 559.743 697.106C551.068 697.098 542.392 697.095 533.716 697.094C519.64 697.092 505.563 697.085 491.486 697.075C477.814 697.066 464.143 697.059 450.471 697.055C449.628 697.055 448.785 697.054 447.916 697.054C443.685 697.053 439.455 697.052 435.225 697.05C400.15 697.04 365.075 697.022 330 697C329.925 691.293 329.871 685.587 329.835 679.88C329.82 677.945 329.8 676.01 329.773 674.076C329.408 646.426 336.044 624.105 355.324 603.594C380.779 578.919 412.253 567.866 447.326 567.842C448.876 567.838 450.426 567.833 451.976 567.827C455.303 567.816 458.63 567.807 461.957 567.801C467.234 567.79 472.512 567.77 477.789 567.748C492.792 567.686 507.794 567.632 522.797 567.599C531.092 567.58 539.386 567.551 547.68 567.511C552.059 567.49 556.437 567.474 560.816 567.472C564.944 567.47 569.071 567.454 573.199 567.427C574.7 567.42 576.2 567.418 577.701 567.422C591.991 567.449 606.124 565.933 619.375 560.25C620.216 559.899 621.058 559.549 621.925 559.187C641.961 550.613 656.541 536.087 665 516C671.103 500.554 672.176 478.568 666 463C656.032 440.389 640.435 425.747 617.562 416.688C603.358 412.094 589.292 411.493 574.5 411.313C572.597 411.279 570.695 411.245 568.793 411.209C564.195 411.125 559.598 411.058 555 411C555.301 410.25 555.602 409.5 555.912 408.727C557.291 405.27 558.62 401.794 559.937 398.313C560.315 397.327 560.315 397.327 560.701 396.322C561.494 394.224 562.249 392.114 563 390C563.279 389.27 563.559 388.54 563.846 387.788C566.278 380.818 566.46 374.11 566.391 366.77C566.375 364.767 566.392 362.764 566.41 360.762C566.342 337.874 557.737 317.358 543 300C542.42 299.276 541.84 298.551 541.242 297.805C533.666 288.707 524.002 281.823 513.73 276.059C513.159 275.709 512.588 275.36 512 275C512 274.67 512 274.34 512 274Z" fill="black"/>
<path d="M449.786 425.71C451.325 425.704 452.864 425.697 454.404 425.689C458.546 425.672 462.689 425.667 466.832 425.666C469.431 425.664 472.03 425.66 474.63 425.655C483.728 425.636 492.826 425.628 501.924 425.629C510.356 425.631 518.787 425.61 527.218 425.578C534.498 425.552 541.779 425.541 549.059 425.542C553.389 425.543 557.718 425.537 562.048 425.516C604.301 425.322 604.301 425.322 619.563 433.813C620.215 434.157 620.867 434.502 621.539 434.857C626.802 437.714 631.548 440.984 636 445C636.598 445.507 637.196 446.013 637.813 446.535C648.438 456.188 654.461 469.697 655.203 483.883C655.515 500.558 651.852 515.589 640.563 528.438C639.061 529.977 637.541 531.5 636 533C635.41 533.623 634.819 534.245 634.211 534.887C614.028 554.67 584.418 553.729 558.315 553.61C553.795 553.596 549.275 553.612 544.754 553.626C535.236 553.65 525.717 553.645 516.199 553.632C501.872 553.613 487.544 553.619 473.217 553.652C467.867 553.664 462.517 553.659 457.167 553.642C453.822 553.634 450.477 553.639 447.132 553.646C445.6 553.647 444.069 553.642 442.538 553.632C431.715 553.565 421.599 554.831 411 557C410.047 557.187 409.094 557.374 408.111 557.567C388.151 561.547 368.237 572.808 353 586C352.17 586.686 351.34 587.372 350.484 588.078C343.059 594.41 336.093 602.026 332 611C331.34 611 330.68 611 330 611C329.953 601.549 329.918 592.099 329.896 582.648C329.886 578.258 329.872 573.867 329.849 569.477C329.827 565.223 329.815 560.97 329.81 556.716C329.807 555.11 329.8 553.505 329.789 551.899C329.689 536.726 329.818 520.781 335.063 506.375C335.366 505.509 335.67 504.643 335.983 503.75C347.114 473.18 369.049 450.016 398.209 435.816C402.669 433.784 407.312 432.395 412 431C413.48 430.461 414.959 429.92 416.438 429.375C427.257 425.843 438.519 425.701 449.786 425.71Z" fill="black"/>
<path d="M517.125 295.75C534.206 310.173 546.449 326.733 551 349C551.185 349.755 551.369 350.511 551.559 351.289C554.641 370.219 550.257 387.566 541 404C540.523 405.18 540.046 406.36 539.555 407.576C538.211 409.895 537.557 410.824 534.973 411.64C532.287 411.87 529.677 411.874 526.981 411.807C525.453 411.811 525.453 411.811 523.894 411.816C521.679 411.817 519.464 411.802 517.249 411.773C513.721 411.726 510.196 411.722 506.669 411.728C500.427 411.732 494.185 411.698 487.943 411.653C478.018 411.581 468.093 411.539 458.167 411.546C454.73 411.539 451.294 411.501 447.856 411.461C417.657 411.305 388.791 420.089 365 439C364.487 439.401 363.975 439.801 363.446 440.214C350.534 450.365 341.293 461.888 332.899 475.957C331.959 477.463 331.959 477.463 331 479C330.67 479 330.34 479 330 479C329.906 464.204 329.836 449.407 329.793 434.611C329.772 427.739 329.745 420.866 329.698 413.994C329.654 407.348 329.631 400.702 329.621 394.056C329.613 391.534 329.599 389.013 329.577 386.492C329.321 355.612 335.209 329.46 357.254 306.746C371.4 292.6 387.808 282.649 407.063 277.188C407.745 276.993 408.428 276.798 409.132 276.597C445.103 267.068 487.183 272.732 517.125 295.75Z" fill="black"/>
</g>
<defs>
<clipPath id="clip0_1309_1169">
<rect width="1024" height="1024" fill="white"/>
</clipPath>
</defs>
</svg>
